<svg width="500" height="500" viewBox="0 0 500 500" fill="none" xmlns="http://www.w3.org/2000/svg">
<path d="M232.652 31C232.116 31 231.672 30.8367 231.322 30.51C230.972 30.16 230.797 29.7167 230.797 29.18C230.797 27.9667 231.147 26.8467 231.847 25.82C232.571 24.7933 233.434 23.895 234.437 23.125C235.464 22.3317 236.806 21.3983 238.462 20.325C239.886 19.415 241.017 18.645 241.857 18.015C242.697 17.385 243.397 16.6967 243.957 15.95C244.517 15.2033 244.797 14.41 244.797 13.57C244.797 12.24 244.354 11.19 243.467 10.42C242.604 9.62667 241.204 9.23 239.267 9.23C237.167 9.23 235.172 9.65 233.282 10.49C233.049 10.6067 232.827 10.665 232.617 10.665C232.244 10.665 231.929 10.5367 231.672 10.28C231.416 10.0233 231.287 9.69667 231.287 9.3C231.287 8.71667 231.544 8.285 232.057 8.005C234.437 6.815 237.027 6.22 239.827 6.22C241.321 6.22 242.674 6.52333 243.887 7.13C245.124 7.71333 246.092 8.54167 246.792 9.615C247.516 10.6883 247.877 11.925 247.877 13.325C247.877 14.7017 247.469 15.985 246.652 17.175C245.859 18.3417 244.902 19.3683 243.782 20.255C242.662 21.1417 241.204 22.1683 239.407 23.335C237.774 24.4317 236.537 25.3183 235.697 25.995C234.881 26.6483 234.309 27.325 233.982 28.025H246.162C246.582 28.025 246.932 28.1767 247.212 28.48C247.516 28.76 247.667 29.11 247.667 29.53C247.667 29.95 247.516 30.3 247.212 30.58C246.932 30.86 246.582 31 246.162 31H232.652ZM261.49 31.35C258.41 31.35 256.053 30.2183 254.42 27.955C252.81 25.6917 252.005 22.635 252.005 18.785C252.005 14.935 252.81 11.8783 254.42 9.615C256.053 7.35167 258.41 6.22 261.49 6.22C264.547 6.22 266.892 7.35167 268.525 9.615C270.158 11.8783 270.975 14.935 270.975 18.785C270.975 22.635 270.158 25.6917 268.525 27.955C266.892 30.2183 264.547 31.35 261.49 31.35ZM261.49 28.41C263.52 28.41 265.072 27.5583 266.145 25.855C267.242 24.1517 267.79 21.795 267.79 18.785C267.79 15.7983 267.242 13.4533 266.145 11.75C265.072 10.0467 263.52 9.195 261.49 9.195C259.46 9.195 257.897 10.0467 256.8 11.75C255.727 13.4533 255.19 15.7983 255.19 18.785C255.19 21.795 255.727 24.1517 256.8 25.855C257.897 27.5583 259.46 28.41 261.49 28.41Z" fill="#ECECEE"/>
<path d="M317.206 42C316.786 42 316.436 41.86 316.156 41.58C315.876 41.3 315.736 40.95 315.736 40.53C315.736 40.11 315.876 39.76 316.156 39.48C316.436 39.1767 316.786 39.025 317.206 39.025H321.371V21.28L317.801 23.03C317.475 23.17 317.206 23.24 316.996 23.24C316.553 23.24 316.191 23.1 315.911 22.82C315.631 22.54 315.491 22.1783 315.491 21.735C315.491 21.0817 315.795 20.6033 316.401 20.3L321.161 17.815C321.488 17.6517 321.815 17.57 322.141 17.57H322.876C323.343 17.57 323.74 17.7333 324.066 18.06C324.393 18.3867 324.556 18.7833 324.556 19.25V39.025H328.021C328.441 39.025 328.791 39.1767 329.071 39.48C329.375 39.76 329.526 40.11 329.526 40.53C329.526 40.95 329.375 41.3 329.071 41.58C328.791 41.86 328.441 42 328.021 42H317.206Z" fill="#ECECEE"/>
<path d="M369.717 75C369.297 75 368.947 74.86 368.667 74.58C368.387 74.3 368.247 73.95 368.247 73.53C368.247 73.11 368.387 72.76 368.667 72.48C368.947 72.1767 369.297 72.025 369.717 72.025H373.882V54.28L370.312 56.03C369.986 56.17 369.717 56.24 369.507 56.24C369.064 56.24 368.702 56.1 368.422 55.82C368.142 55.54 368.002 55.1783 368.002 54.735C368.002 54.0817 368.306 53.6033 368.912 53.3L373.672 50.815C373.999 50.6517 374.326 50.57 374.652 50.57H375.387C375.854 50.57 376.251 50.7333 376.577 51.06C376.904 51.3867 377.067 51.7833 377.067 52.25V72.025H380.532C380.952 72.025 381.302 72.1767 381.582 72.48C381.886 72.76 382.037 73.11 382.037 73.53C382.037 73.95 381.886 74.3 381.582 74.58C381.302 74.86 380.952 75 380.532 75H369.717ZM396.49 75.35C394.297 75.35 392.5 75.0117 391.1 74.335C389.723 73.6583 388.72 72.8067 388.09 71.78C387.46 70.7533 387.145 69.6683 387.145 68.525C387.145 65.2817 388.883 63.0767 392.36 61.91C391.17 61.5133 390.19 60.8717 389.42 59.985C388.673 59.075 388.3 57.9433 388.3 56.59C388.3 55.5867 388.568 54.595 389.105 53.615C389.665 52.635 390.552 51.83 391.765 51.2C393.002 50.5467 394.577 50.22 396.49 50.22C398.403 50.22 399.967 50.5467 401.18 51.2C402.417 51.83 403.303 52.635 403.84 53.615C404.4 54.595 404.68 55.5867 404.68 56.59C404.68 57.9433 404.295 59.075 403.525 59.985C402.778 60.8717 401.81 61.5133 400.62 61.91C404.097 63.0767 405.835 65.2817 405.835 68.525C405.835 69.6683 405.52 70.7533 404.89 71.78C404.26 72.8067 403.245 73.6583 401.845 74.335C400.468 75.0117 398.683 75.35 396.49 75.35ZM396.49 60.58C398.217 60.58 399.477 60.195 400.27 59.425C401.087 58.655 401.495 57.78 401.495 56.8C401.495 55.7033 401.063 54.805 400.2 54.105C399.36 53.3817 398.123 53.02 396.49 53.02C394.857 53.02 393.608 53.3817 392.745 54.105C391.905 54.805 391.485 55.7033 391.485 56.8C391.485 57.78 391.882 58.655 392.675 59.425C393.492 60.195 394.763 60.58 396.49 60.58ZM396.49 72.55C397.937 72.55 399.115 72.3167 400.025 71.85C400.958 71.36 401.623 70.7767 402.02 70.1C402.44 69.4233 402.65 68.7817 402.65 68.175C402.65 66.6817 402.055 65.5267 400.865 64.71C399.675 63.87 398.217 63.45 396.49 63.45C394.763 63.45 393.305 63.87 392.115 64.71C390.925 65.5267 390.33 66.6817 390.33 68.175C390.33 68.7817 390.528 69.4233 390.925 70.1C391.345 70.7767 392.01 71.36 392.92 71.85C393.853 72.3167 395.043 72.55 396.49 72.55Z" fill="#ECECEE"/>
<path d="M440.666 126.175C440.223 126.175 439.85 126.023 439.546 125.72C439.243 125.417 439.091 125.043 439.091 124.6V119.84H428.416C427.856 119.84 427.378 119.653 426.981 119.28C426.585 118.883 426.386 118.405 426.386 117.845V117.53C426.386 117.04 426.526 116.62 426.806 116.27L437.796 102.235C437.983 101.978 438.228 101.78 438.531 101.64C438.858 101.477 439.196 101.395 439.546 101.395H440.246C440.853 101.395 441.343 101.593 441.716 101.99C442.09 102.363 442.276 102.842 442.276 103.425V117.005H444.936C445.333 117.005 445.671 117.145 445.951 117.425C446.231 117.705 446.371 118.043 446.371 118.44C446.371 118.837 446.231 119.175 445.951 119.455C445.671 119.712 445.333 119.84 444.936 119.84H442.276V124.6C442.276 125.043 442.113 125.417 441.786 125.72C441.483 126.023 441.11 126.175 440.666 126.175ZM429.781 117.005H439.091V105L429.781 117.005Z" fill="#ECECEE"/>
<path d="M453.717 190C453.297 190 452.947 189.86 452.667 189.58C452.387 189.3 452.247 188.95 452.247 188.53C452.247 188.11 452.387 187.76 452.667 187.48C452.947 187.177 453.297 187.025 453.717 187.025H457.882V169.28L454.312 171.03C453.986 171.17 453.717 171.24 453.507 171.24C453.064 171.24 452.702 171.1 452.422 170.82C452.142 170.54 452.002 170.178 452.002 169.735C452.002 169.082 452.306 168.603 452.912 168.3L457.672 165.815C457.999 165.652 458.326 165.57 458.652 165.57H459.387C459.854 165.57 460.251 165.733 460.577 166.06C460.904 166.387 461.067 166.783 461.067 167.25V187.025H464.532C464.952 187.025 465.302 187.177 465.582 187.48C465.886 187.76 466.037 188.11 466.037 188.53C466.037 188.95 465.886 189.3 465.582 189.58C465.302 189.86 464.952 190 464.532 190H453.717ZM479.79 190.35C477.2 190.35 474.762 189.883 472.475 188.95C472.195 188.833 471.973 188.67 471.81 188.46C471.647 188.227 471.565 187.947 471.565 187.62C471.565 187.223 471.693 186.885 471.95 186.605C472.23 186.302 472.568 186.15 472.965 186.15C473.175 186.15 473.397 186.197 473.63 186.29C475.31 186.967 477.165 187.305 479.195 187.305C481.015 187.305 482.543 187.013 483.78 186.43C485.04 185.823 485.67 184.82 485.67 183.42C485.67 180.48 483.092 179.01 477.935 179.01H477.375C476.978 179.01 476.628 178.87 476.325 178.59C476.045 178.287 475.905 177.937 475.905 177.54C475.905 177.143 476.045 176.805 476.325 176.525C476.628 176.222 476.978 176.07 477.375 176.07H477.585C479.918 176.07 481.703 175.72 482.94 175.02C484.177 174.297 484.795 173.235 484.795 171.835C484.795 170.715 484.328 169.828 483.395 169.175C482.462 168.522 481.085 168.195 479.265 168.195C477.305 168.195 475.497 168.58 473.84 169.35C473.607 169.443 473.397 169.49 473.21 169.49C472.86 169.49 472.557 169.373 472.3 169.14C472.043 168.883 471.915 168.568 471.915 168.195C471.915 167.658 472.148 167.262 472.615 167.005C474.855 165.815 477.165 165.22 479.545 165.22C482.228 165.22 484.305 165.768 485.775 166.865C487.245 167.962 487.98 169.513 487.98 171.52C487.98 173.13 487.572 174.402 486.755 175.335C485.962 176.245 484.958 176.922 483.745 177.365C485.075 177.668 486.253 178.31 487.28 179.29C488.33 180.247 488.855 181.682 488.855 183.595C488.855 185.742 488.003 187.41 486.3 188.6C484.62 189.767 482.45 190.35 479.79 190.35Z" fill="#ECECEE"/>
<path d="M481.166 261.35C474.773 261.35 471.576 257.173 471.576 248.82C471.576 246.79 471.903 244.818 472.556 242.905C473.233 240.992 474.33 239.405 475.846 238.145C477.363 236.862 479.323 236.22 481.726 236.22C483.033 236.22 484.176 236.36 485.156 236.64C486.136 236.92 487.058 237.282 487.921 237.725C488.131 237.842 488.306 238.017 488.446 238.25C488.586 238.483 488.656 238.728 488.656 238.985C488.656 239.358 488.516 239.697 488.236 240C487.98 240.28 487.641 240.42 487.221 240.42C487.011 240.42 486.813 240.385 486.626 240.315C485.18 239.638 483.628 239.3 481.971 239.3C479.335 239.3 477.48 240.222 476.406 242.065C475.333 243.908 474.738 245.973 474.621 248.26C475.321 247.373 476.255 246.638 477.421 246.055C478.588 245.472 480.046 245.18 481.796 245.18C483.383 245.18 484.771 245.518 485.961 246.195C487.175 246.872 488.12 247.828 488.796 249.065C489.473 250.302 489.811 251.748 489.811 253.405C489.811 254.875 489.461 256.217 488.761 257.43C488.061 258.643 487.058 259.6 485.751 260.3C484.445 261 482.916 261.35 481.166 261.35ZM481.201 258.375C482.275 258.375 483.22 258.153 484.036 257.71C484.876 257.243 485.518 256.625 485.961 255.855C486.405 255.085 486.626 254.245 486.626 253.335C486.626 251.748 486.183 250.477 485.296 249.52C484.41 248.563 483.115 248.085 481.411 248.085C478.378 248.085 476.173 249.368 474.796 251.935C475.426 256.228 477.561 258.375 481.201 258.375Z" fill="#ECECEE"/>
<path d="M452.717 333C452.297 333 451.947 332.86 451.667 332.58C451.387 332.3 451.247 331.95 451.247 331.53C451.247 331.11 451.387 330.76 451.667 330.48C451.947 330.177 452.297 330.025 452.717 330.025H456.882V312.28L453.312 314.03C452.986 314.17 452.717 314.24 452.507 314.24C452.064 314.24 451.702 314.1 451.422 313.82C451.142 313.54 451.002 313.178 451.002 312.735C451.002 312.082 451.306 311.603 451.912 311.3L456.672 308.815C456.999 308.652 457.326 308.57 457.652 308.57H458.387C458.854 308.57 459.251 308.733 459.577 309.06C459.904 309.387 460.067 309.783 460.067 310.25V330.025H463.532C463.952 330.025 464.302 330.177 464.582 330.48C464.886 330.76 465.037 331.11 465.037 331.53C465.037 331.95 464.886 332.3 464.582 332.58C464.302 332.86 463.952 333 463.532 333H452.717ZM479.49 333.35C476.41 333.35 474.053 332.218 472.42 329.955C470.81 327.692 470.005 324.635 470.005 320.785C470.005 316.935 470.81 313.878 472.42 311.615C474.053 309.352 476.41 308.22 479.49 308.22C482.547 308.22 484.892 309.352 486.525 311.615C488.158 313.878 488.975 316.935 488.975 320.785C488.975 324.635 488.158 327.692 486.525 329.955C484.892 332.218 482.547 333.35 479.49 333.35ZM479.49 330.41C481.52 330.41 483.072 329.558 484.145 327.855C485.242 326.152 485.79 323.795 485.79 320.785C485.79 317.798 485.242 315.453 484.145 313.75C483.072 312.047 481.52 311.195 479.49 311.195C477.46 311.195 475.897 312.047 474.8 313.75C473.727 315.453 473.19 317.798 473.19 320.785C473.19 323.795 473.727 326.152 474.8 327.855C475.897 329.558 477.46 330.41 479.49 330.41Z" fill="#ECECEE"/>
<path d="M420.717 396C420.297 396 419.947 395.86 419.667 395.58C419.387 395.3 419.247 394.95 419.247 394.53C419.247 394.11 419.387 393.76 419.667 393.48C419.947 393.177 420.297 393.025 420.717 393.025H424.882V375.28L421.312 377.03C420.986 377.17 420.717 377.24 420.507 377.24C420.064 377.24 419.702 377.1 419.422 376.82C419.142 376.54 419.002 376.178 419.002 375.735C419.002 375.082 419.306 374.603 419.912 374.3L424.672 371.815C424.999 371.652 425.326 371.57 425.652 371.57H426.387C426.854 371.57 427.251 371.733 427.577 372.06C427.904 372.387 428.067 372.783 428.067 373.25V393.025H431.532C431.952 393.025 432.302 393.177 432.582 393.48C432.886 393.76 433.037 394.11 433.037 394.53C433.037 394.95 432.886 395.3 432.582 395.58C432.302 395.86 431.952 396 431.532 396H420.717ZM446.895 396.35C444.048 396.35 441.563 395.673 439.44 394.32C439.207 394.157 439.032 393.993 438.915 393.83C438.798 393.643 438.74 393.387 438.74 393.06C438.74 392.64 438.868 392.29 439.125 392.01C439.382 391.707 439.72 391.555 440.14 391.555C440.397 391.555 440.642 391.613 440.875 391.73C442.718 392.71 444.585 393.2 446.475 393.2C448.692 393.2 450.383 392.827 451.55 392.08C452.717 391.333 453.3 390.062 453.3 388.265C453.3 386.818 452.81 385.675 451.83 384.835C450.873 383.995 449.555 383.575 447.875 383.575C445.938 383.575 444.142 384.077 442.485 385.08C442.438 385.103 442.298 385.185 442.065 385.325C441.855 385.442 441.587 385.5 441.26 385.5C440.607 385.5 440.058 385.313 439.615 384.94C439.172 384.567 438.95 384.077 438.95 383.47C438.95 383.19 438.973 382.91 439.02 382.63L440.595 373.32C440.665 372.783 440.863 372.363 441.19 372.06C441.54 371.733 441.96 371.57 442.45 371.57H453.685C454.105 371.57 454.455 371.722 454.735 372.025C455.038 372.305 455.19 372.655 455.19 373.075C455.19 373.495 455.038 373.845 454.735 374.125C454.455 374.405 454.105 374.545 453.685 374.545H443.535L442.415 381.965C444.188 381.008 446.16 380.53 448.33 380.53C450.057 380.53 451.527 380.868 452.74 381.545C453.977 382.222 454.91 383.155 455.54 384.345C456.17 385.535 456.485 386.9 456.485 388.44C456.485 390.797 455.68 392.71 454.07 394.18C452.46 395.627 450.068 396.35 446.895 396.35Z" fill="#ECECEE"/>
<path d="M378.641 447C378.105 447 377.661 446.837 377.311 446.51C376.961 446.16 376.786 445.717 376.786 445.18C376.786 443.967 377.136 442.847 377.836 441.82C378.56 440.793 379.423 439.895 380.426 439.125C381.453 438.332 382.795 437.398 384.451 436.325C385.875 435.415 387.006 434.645 387.846 434.015C388.686 433.385 389.386 432.697 389.946 431.95C390.506 431.203 390.786 430.41 390.786 429.57C390.786 428.24 390.343 427.19 389.456 426.42C388.593 425.627 387.193 425.23 385.256 425.23C383.156 425.23 381.161 425.65 379.271 426.49C379.038 426.607 378.816 426.665 378.606 426.665C378.233 426.665 377.918 426.537 377.661 426.28C377.405 426.023 377.276 425.697 377.276 425.3C377.276 424.717 377.533 424.285 378.046 424.005C380.426 422.815 383.016 422.22 385.816 422.22C387.31 422.22 388.663 422.523 389.876 423.13C391.113 423.713 392.081 424.542 392.781 425.615C393.505 426.688 393.866 427.925 393.866 429.325C393.866 430.702 393.458 431.985 392.641 433.175C391.848 434.342 390.891 435.368 389.771 436.255C388.651 437.142 387.193 438.168 385.396 439.335C383.763 440.432 382.526 441.318 381.686 441.995C380.87 442.648 380.298 443.325 379.971 444.025H392.151C392.571 444.025 392.921 444.177 393.201 444.48C393.505 444.76 393.656 445.11 393.656 445.53C393.656 445.95 393.505 446.3 393.201 446.58C392.921 446.86 392.571 447 392.151 447H378.641Z" fill="#ECECEE"/>
<path d="M305.217 480C304.797 480 304.447 479.86 304.167 479.58C303.887 479.3 303.747 478.95 303.747 478.53C303.747 478.11 303.887 477.76 304.167 477.48C304.447 477.177 304.797 477.025 305.217 477.025H309.382V459.28L305.812 461.03C305.486 461.17 305.217 461.24 305.007 461.24C304.564 461.24 304.202 461.1 303.922 460.82C303.642 460.54 303.502 460.178 303.502 459.735C303.502 459.082 303.806 458.603 304.412 458.3L309.172 455.815C309.499 455.652 309.826 455.57 310.152 455.57H310.887C311.354 455.57 311.751 455.733 312.077 456.06C312.404 456.387 312.567 456.783 312.567 457.25V477.025H316.032C316.452 477.025 316.802 477.177 317.082 477.48C317.386 477.76 317.537 478.11 317.537 478.53C317.537 478.95 317.386 479.3 317.082 479.58C316.802 479.86 316.452 480 316.032 480H305.217ZM329.05 480.175C328.607 480.175 328.233 480.023 327.93 479.72C327.627 479.417 327.475 479.043 327.475 478.6C327.475 478.32 327.545 478.04 327.685 477.76L337.31 458.615H324.605C324.185 458.615 323.823 458.475 323.52 458.195C323.24 457.892 323.1 457.53 323.1 457.11C323.1 456.69 323.24 456.328 323.52 456.025C323.823 455.722 324.185 455.57 324.605 455.57H338.885C339.445 455.57 339.912 455.745 340.285 456.095C340.658 456.445 340.845 456.888 340.845 457.425C340.845 457.938 340.728 458.452 340.495 458.965L330.555 479.3C330.415 479.557 330.205 479.767 329.925 479.93C329.645 480.093 329.353 480.175 329.05 480.175Z" fill="#ECECEE"/>
<path d="M249.801 491.35C247.211 491.35 244.773 490.883 242.486 489.95C242.206 489.833 241.985 489.67 241.821 489.46C241.658 489.227 241.576 488.947 241.576 488.62C241.576 488.223 241.705 487.885 241.961 487.605C242.241 487.302 242.58 487.15 242.976 487.15C243.186 487.15 243.408 487.197 243.641 487.29C245.321 487.967 247.176 488.305 249.206 488.305C251.026 488.305 252.555 488.013 253.791 487.43C255.051 486.823 255.681 485.82 255.681 484.42C255.681 481.48 253.103 480.01 247.946 480.01H247.386C246.99 480.01 246.64 479.87 246.336 479.59C246.056 479.287 245.916 478.937 245.916 478.54C245.916 478.143 246.056 477.805 246.336 477.525C246.64 477.222 246.99 477.07 247.386 477.07H247.596C249.93 477.07 251.715 476.72 252.951 476.02C254.188 475.297 254.806 474.235 254.806 472.835C254.806 471.715 254.34 470.828 253.406 470.175C252.473 469.522 251.096 469.195 249.276 469.195C247.316 469.195 245.508 469.58 243.851 470.35C243.618 470.443 243.408 470.49 243.221 470.49C242.871 470.49 242.568 470.373 242.311 470.14C242.055 469.883 241.926 469.568 241.926 469.195C241.926 468.658 242.16 468.262 242.626 468.005C244.866 466.815 247.176 466.22 249.556 466.22C252.24 466.22 254.316 466.768 255.786 467.865C257.256 468.962 257.991 470.513 257.991 472.52C257.991 474.13 257.583 475.402 256.766 476.335C255.973 477.245 254.97 477.922 253.756 478.365C255.086 478.668 256.265 479.31 257.291 480.29C258.341 481.247 258.866 482.682 258.866 484.595C258.866 486.742 258.015 488.41 256.311 489.6C254.631 490.767 252.461 491.35 249.801 491.35Z" fill="#ECECEE"/>
<path d="M163.217 480C162.797 480 162.447 479.86 162.167 479.58C161.887 479.3 161.747 478.95 161.747 478.53C161.747 478.11 161.887 477.76 162.167 477.48C162.447 477.177 162.797 477.025 163.217 477.025H167.382V459.28L163.812 461.03C163.486 461.17 163.217 461.24 163.007 461.24C162.564 461.24 162.202 461.1 161.922 460.82C161.642 460.54 161.502 460.178 161.502 459.735C161.502 459.082 161.806 458.603 162.412 458.3L167.172 455.815C167.499 455.652 167.826 455.57 168.152 455.57H168.887C169.354 455.57 169.751 455.733 170.077 456.06C170.404 456.387 170.567 456.783 170.567 457.25V477.025H174.032C174.452 477.025 174.802 477.177 175.082 477.48C175.386 477.76 175.537 478.11 175.537 478.53C175.537 478.95 175.386 479.3 175.082 479.58C174.802 479.86 174.452 480 174.032 480H163.217ZM188.765 480.35C187.458 480.35 186.315 480.21 185.335 479.93C184.355 479.65 183.433 479.288 182.57 478.845C182.36 478.728 182.185 478.553 182.045 478.32C181.905 478.087 181.835 477.842 181.835 477.585C181.835 477.212 181.963 476.885 182.22 476.605C182.5 476.302 182.85 476.15 183.27 476.15C183.48 476.15 183.678 476.185 183.865 476.255C185.312 476.932 186.863 477.27 188.52 477.27C191.157 477.27 193.012 476.348 194.085 474.505C195.158 472.662 195.753 470.597 195.87 468.31C195.17 469.197 194.237 469.932 193.07 470.515C191.903 471.098 190.445 471.39 188.695 471.39C187.108 471.39 185.708 471.052 184.495 470.375C183.305 469.698 182.372 468.742 181.695 467.505C181.018 466.268 180.68 464.822 180.68 463.165C180.68 461.695 181.03 460.353 181.73 459.14C182.43 457.927 183.433 456.97 184.74 456.27C186.047 455.57 187.575 455.22 189.325 455.22C195.718 455.22 198.915 459.397 198.915 467.75C198.915 469.78 198.577 471.752 197.9 473.665C197.247 475.578 196.162 477.177 194.645 478.46C193.128 479.72 191.168 480.35 188.765 480.35ZM189.08 468.485C192.113 468.485 194.318 467.202 195.695 464.635C195.065 460.342 192.93 458.195 189.29 458.195C188.217 458.195 187.26 458.428 186.42 458.895C185.603 459.338 184.973 459.945 184.53 460.715C184.087 461.485 183.865 462.325 183.865 463.235C183.865 464.822 184.308 466.093 185.195 467.05C186.082 468.007 187.377 468.485 189.08 468.485Z" fill="#ECECEE"/>
<path d="M112.561 447.175C112.118 447.175 111.745 447.023 111.441 446.72C111.138 446.417 110.986 446.043 110.986 445.6C110.986 445.32 111.056 445.04 111.196 444.76L120.821 425.615H108.116C107.696 425.615 107.335 425.475 107.031 425.195C106.751 424.892 106.611 424.53 106.611 424.11C106.611 423.69 106.751 423.328 107.031 423.025C107.335 422.722 107.696 422.57 108.116 422.57H122.396C122.956 422.57 123.423 422.745 123.796 423.095C124.17 423.445 124.356 423.888 124.356 424.425C124.356 424.938 124.24 425.452 124.006 425.965L114.066 446.3C113.926 446.557 113.716 446.767 113.436 446.93C113.156 447.093 112.865 447.175 112.561 447.175Z" fill="#ECECEE"/>
<path d="M48.7175 396C48.2975 396 47.9475 395.86 47.6675 395.58C47.3875 395.3 47.2475 394.95 47.2475 394.53C47.2475 394.11 47.3875 393.76 47.6675 393.48C47.9475 393.177 48.2975 393.025 48.7175 393.025H52.8825V375.28L49.3125 377.03C48.9858 377.17 48.7175 377.24 48.5075 377.24C48.0641 377.24 47.7025 377.1 47.4225 376.82C47.1425 376.54 47.0025 376.178 47.0025 375.735C47.0025 375.082 47.3058 374.603 47.9125 374.3L52.6725 371.815C52.9991 371.652 53.3258 371.57 53.6525 371.57H54.3875C54.8541 371.57 55.2508 371.733 55.5775 372.06C55.9041 372.387 56.0675 372.783 56.0675 373.25V393.025H59.5325C59.9525 393.025 60.3025 393.177 60.5825 393.48C60.8858 393.76 61.0375 394.11 61.0375 394.53C61.0375 394.95 60.8858 395.3 60.5825 395.58C60.3025 395.86 59.9525 396 59.5325 396H48.7175ZM76.155 396.35C69.7617 396.35 66.565 392.173 66.565 383.82C66.565 381.79 66.8917 379.818 67.545 377.905C68.2217 375.992 69.3183 374.405 70.835 373.145C72.3517 371.862 74.3117 371.22 76.715 371.22C78.0217 371.22 79.165 371.36 80.145 371.64C81.125 371.92 82.0467 372.282 82.91 372.725C83.12 372.842 83.295 373.017 83.435 373.25C83.575 373.483 83.645 373.728 83.645 373.985C83.645 374.358 83.505 374.697 83.225 375C82.9683 375.28 82.63 375.42 82.21 375.42C82 375.42 81.8017 375.385 81.615 375.315C80.1683 374.638 78.6167 374.3 76.96 374.3C74.3233 374.3 72.4683 375.222 71.395 377.065C70.3217 378.908 69.7267 380.973 69.61 383.26C70.31 382.373 71.2433 381.638 72.41 381.055C73.5767 380.472 75.035 380.18 76.785 380.18C78.3717 380.18 79.76 380.518 80.95 381.195C82.1633 381.872 83.1083 382.828 83.785 384.065C84.4617 385.302 84.8 386.748 84.8 388.405C84.8 389.875 84.45 391.217 83.75 392.43C83.05 393.643 82.0467 394.6 80.74 395.3C79.4333 396 77.905 396.35 76.155 396.35ZM76.19 393.375C77.2633 393.375 78.2083 393.153 79.025 392.71C79.865 392.243 80.5067 391.625 80.95 390.855C81.3933 390.085 81.615 389.245 81.615 388.335C81.615 386.748 81.1717 385.477 80.285 384.52C79.3983 383.563 78.1033 383.085 76.4 383.085C73.3667 383.085 71.1617 384.368 69.785 386.935C70.415 391.228 72.55 393.375 76.19 393.375Z" fill="#ECECEE"/>
<path d="M31.5012 333.35C29.3079 333.35 27.5112 333.012 26.1112 332.335C24.7346 331.658 23.7312 330.807 23.1012 329.78C22.4712 328.753 22.1562 327.668 22.1562 326.525C22.1562 323.282 23.8946 321.077 27.3712 319.91C26.1812 319.513 25.2012 318.872 24.4312 317.985C23.6846 317.075 23.3112 315.943 23.3112 314.59C23.3112 313.587 23.5796 312.595 24.1162 311.615C24.6762 310.635 25.5629 309.83 26.7762 309.2C28.0129 308.547 29.5879 308.22 31.5012 308.22C33.4146 308.22 34.9779 308.547 36.1912 309.2C37.4279 309.83 38.3146 310.635 38.8512 311.615C39.4112 312.595 39.6912 313.587 39.6912 314.59C39.6912 315.943 39.3062 317.075 38.5362 317.985C37.7896 318.872 36.8212 319.513 35.6312 319.91C39.1079 321.077 40.8462 323.282 40.8462 326.525C40.8462 327.668 40.5312 328.753 39.9012 329.78C39.2712 330.807 38.2562 331.658 36.8562 332.335C35.4796 333.012 33.6946 333.35 31.5012 333.35ZM31.5012 318.58C33.2279 318.58 34.4879 318.195 35.2812 317.425C36.0979 316.655 36.5062 315.78 36.5062 314.8C36.5062 313.703 36.0746 312.805 35.2112 312.105C34.3712 311.382 33.1346 311.02 31.5012 311.02C29.8679 311.02 28.6196 311.382 27.7562 312.105C26.9162 312.805 26.4962 313.703 26.4962 314.8C26.4962 315.78 26.8929 316.655 27.6862 317.425C28.5029 318.195 29.7746 318.58 31.5012 318.58ZM31.5012 330.55C32.9479 330.55 34.1262 330.317 35.0362 329.85C35.9696 329.36 36.6346 328.777 37.0312 328.1C37.4512 327.423 37.6612 326.782 37.6612 326.175C37.6612 324.682 37.0662 323.527 35.8762 322.71C34.6862 321.87 33.2279 321.45 31.5012 321.45C29.7746 321.45 28.3162 321.87 27.1262 322.71C25.9362 323.527 25.3412 324.682 25.3412 326.175C25.3412 326.782 25.5396 327.423 25.9362 328.1C26.3562 328.777 27.0212 329.36 27.9312 329.85C28.8646 330.317 30.0546 330.55 31.5012 330.55Z" fill="#ECECEE"/>
<path d="M4.71746 261C4.29746 261 3.94746 260.86 3.66746 260.58C3.38746 260.3 3.24746 259.95 3.24746 259.53C3.24746 259.11 3.38746 258.76 3.66746 258.48C3.94746 258.177 4.29746 258.025 4.71746 258.025H8.88246V240.28L5.31246 242.03C4.98579 242.17 4.71746 242.24 4.50746 242.24C4.06413 242.24 3.70246 242.1 3.42246 241.82C3.14246 241.54 3.00246 241.178 3.00246 240.735C3.00246 240.082 3.30579 239.603 3.91246 239.3L8.67246 236.815C8.99913 236.652 9.32579 236.57 9.65246 236.57H10.3875C10.8541 236.57 11.2508 236.733 11.5775 237.06C11.9041 237.387 12.0675 237.783 12.0675 238.25V258.025H15.5325C15.9525 258.025 16.3025 258.177 16.5825 258.48C16.8858 258.76 17.0375 259.11 17.0375 259.53C17.0375 259.95 16.8858 260.3 16.5825 260.58C16.3025 260.86 15.9525 261 15.5325 261H4.71746ZM26.695 261C26.275 261 25.925 260.86 25.645 260.58C25.365 260.3 25.225 259.95 25.225 259.53C25.225 259.11 25.365 258.76 25.645 258.48C25.925 258.177 26.275 258.025 26.695 258.025H30.86V240.28L27.29 242.03C26.9633 242.17 26.695 242.24 26.485 242.24C26.0417 242.24 25.68 242.1 25.4 241.82C25.12 241.54 24.98 241.178 24.98 240.735C24.98 240.082 25.2833 239.603 25.89 239.3L30.65 236.815C30.9767 236.652 31.3033 236.57 31.63 236.57H32.365C32.8317 236.57 33.2283 236.733 33.555 237.06C33.8817 237.387 34.045 237.783 34.045 238.25V258.025H37.51C37.93 258.025 38.28 258.177 38.56 258.48C38.8633 258.76 39.015 259.11 39.015 259.53C39.015 259.95 38.8633 260.3 38.56 260.58C38.28 260.86 37.93 261 37.51 261H26.695Z" fill="#ECECEE"/>
<path d="M15.7175 190C15.2975 190 14.9475 189.86 14.6675 189.58C14.3875 189.3 14.2475 188.95 14.2475 188.53C14.2475 188.11 14.3875 187.76 14.6675 187.48C14.9475 187.177 15.2975 187.025 15.7175 187.025H19.8825V169.28L16.3125 171.03C15.9858 171.17 15.7175 171.24 15.5075 171.24C15.0641 171.24 14.7025 171.1 14.4225 170.82C14.1425 170.54 14.0025 170.178 14.0025 169.735C14.0025 169.082 14.3058 168.603 14.9125 168.3L19.6725 165.815C19.9991 165.652 20.3258 165.57 20.6525 165.57H21.3875C21.8541 165.57 22.2508 165.733 22.5775 166.06C22.9041 166.387 23.0675 166.783 23.0675 167.25V187.025H26.5325C26.9525 187.025 27.3025 187.177 27.5825 187.48C27.8858 187.76 28.0375 188.11 28.0375 188.53C28.0375 188.95 27.8858 189.3 27.5825 189.58C27.3025 189.86 26.9525 190 26.5325 190H15.7175ZM46.655 190.175C46.2117 190.175 45.8383 190.023 45.535 189.72C45.2317 189.417 45.08 189.043 45.08 188.6V183.84H34.405C33.845 183.84 33.3667 183.653 32.97 183.28C32.5733 182.883 32.375 182.405 32.375 181.845V181.53C32.375 181.04 32.515 180.62 32.795 180.27L43.785 166.235C43.9717 165.978 44.2167 165.78 44.52 165.64C44.8467 165.477 45.185 165.395 45.535 165.395H46.235C46.8417 165.395 47.3317 165.593 47.705 165.99C48.0783 166.363 48.265 166.842 48.265 167.425V181.005H50.925C51.3217 181.005 51.66 181.145 51.94 181.425C52.22 181.705 52.36 182.043 52.36 182.44C52.36 182.837 52.22 183.175 51.94 183.455C51.66 183.712 51.3217 183.84 50.925 183.84H48.265V188.6C48.265 189.043 48.1017 189.417 47.775 189.72C47.4717 190.023 47.0983 190.175 46.655 190.175ZM35.77 181.005H45.08V169L35.77 181.005Z" fill="#ECECEE"/>
<path d="M63.2762 126.35C61.9696 126.35 60.8262 126.21 59.8462 125.93C58.8662 125.65 57.9446 125.288 57.0812 124.845C56.8712 124.728 56.6962 124.553 56.5562 124.32C56.4162 124.087 56.3462 123.842 56.3462 123.585C56.3462 123.212 56.4746 122.885 56.7312 122.605C57.0112 122.302 57.3612 122.15 57.7812 122.15C57.9912 122.15 58.1896 122.185 58.3762 122.255C59.8229 122.932 61.3746 123.27 63.0312 123.27C65.6679 123.27 67.5229 122.348 68.5962 120.505C69.6696 118.662 70.2646 116.597 70.3812 114.31C69.6812 115.197 68.7479 115.932 67.5812 116.515C66.4146 117.098 64.9562 117.39 63.2062 117.39C61.6196 117.39 60.2196 117.052 59.0062 116.375C57.8162 115.698 56.8829 114.742 56.2062 113.505C55.5296 112.268 55.1912 110.822 55.1912 109.165C55.1912 107.695 55.5412 106.353 56.2412 105.14C56.9412 103.927 57.9446 102.97 59.2512 102.27C60.5579 101.57 62.0862 101.22 63.8362 101.22C70.2296 101.22 73.4262 105.397 73.4262 113.75C73.4262 115.78 73.0879 117.752 72.4112 119.665C71.7579 121.578 70.6729 123.177 69.1562 124.46C67.6396 125.72 65.6796 126.35 63.2762 126.35ZM63.5912 114.485C66.6246 114.485 68.8296 113.202 70.2062 110.635C69.5762 106.342 67.4412 104.195 63.8012 104.195C62.7279 104.195 61.7712 104.428 60.9312 104.895C60.1146 105.338 59.4846 105.945 59.0412 106.715C58.5979 107.485 58.3762 108.325 58.3762 109.235C58.3762 110.822 58.8196 112.093 59.7062 113.05C60.5929 114.007 61.8879 114.485 63.5912 114.485Z" fill="#ECECEE"/>
<path d="M99.7175 75C99.2975 75 98.9475 74.86 98.6675 74.58C98.3875 74.3 98.2475 73.95 98.2475 73.53C98.2475 73.11 98.3875 72.76 98.6675 72.48C98.9475 72.1767 99.2975 72.025 99.7175 72.025H103.882V54.28L100.312 56.03C99.9858 56.17 99.7175 56.24 99.5075 56.24C99.0641 56.24 98.7025 56.1 98.4225 55.82C98.1425 55.54 98.0025 55.1783 98.0025 54.735C98.0025 54.0817 98.3058 53.6033 98.9125 53.3L103.672 50.815C103.999 50.6517 104.326 50.57 104.652 50.57H105.387C105.854 50.57 106.251 50.7333 106.577 51.06C106.904 51.3867 107.067 51.7833 107.067 52.25V72.025H110.532C110.952 72.025 111.302 72.1767 111.582 72.48C111.886 72.76 112.037 73.11 112.037 73.53C112.037 73.95 111.886 74.3 111.582 74.58C111.302 74.86 110.952 75 110.532 75H99.7175ZM119.63 75C119.093 75 118.65 74.8367 118.3 74.51C117.95 74.16 117.775 73.7167 117.775 73.18C117.775 71.9667 118.125 70.8467 118.825 69.82C119.548 68.7933 120.412 67.895 121.415 67.125C122.442 66.3317 123.783 65.3983 125.44 64.325C126.863 63.415 127.995 62.645 128.835 62.015C129.675 61.385 130.375 60.6967 130.935 59.95C131.495 59.2033 131.775 58.41 131.775 57.57C131.775 56.24 131.332 55.19 130.445 54.42C129.582 53.6267 128.182 53.23 126.245 53.23C124.145 53.23 122.15 53.65 120.26 54.49C120.027 54.6067 119.805 54.665 119.595 54.665C119.222 54.665 118.907 54.5367 118.65 54.28C118.393 54.0233 118.265 53.6967 118.265 53.3C118.265 52.7167 118.522 52.285 119.035 52.005C121.415 50.815 124.005 50.22 126.805 50.22C128.298 50.22 129.652 50.5233 130.865 51.13C132.102 51.7133 133.07 52.5417 133.77 53.615C134.493 54.6883 134.855 55.925 134.855 57.325C134.855 58.7017 134.447 59.985 133.63 61.175C132.837 62.3417 131.88 63.3683 130.76 64.255C129.64 65.1417 128.182 66.1683 126.385 67.335C124.752 68.4317 123.515 69.3183 122.675 69.995C121.858 70.6483 121.287 71.325 120.96 72.025H133.14C133.56 72.025 133.91 72.1767 134.19 72.48C134.493 72.76 134.645 73.11 134.645 73.53C134.645 73.95 134.493 74.3 134.19 74.58C133.91 74.86 133.56 75 133.14 75H119.63Z" fill="#ECECEE"/>
<path d="M178.406 42.35C175.56 42.35 173.075 41.6733 170.951 40.32C170.718 40.1567 170.543 39.9933 170.426 39.83C170.31 39.6433 170.251 39.3867 170.251 39.06C170.251 38.64 170.38 38.29 170.636 38.01C170.893 37.7067 171.231 37.555 171.651 37.555C171.908 37.555 172.153 37.6133 172.386 37.73C174.23 38.71 176.096 39.2 177.986 39.2C180.203 39.2 181.895 38.8267 183.061 38.08C184.228 37.3333 184.811 36.0617 184.811 34.265C184.811 32.8183 184.321 31.675 183.341 30.835C182.385 29.995 181.066 29.575 179.386 29.575C177.45 29.575 175.653 30.0767 173.996 31.08C173.95 31.1033 173.81 31.185 173.576 31.325C173.366 31.4417 173.098 31.5 172.771 31.5C172.118 31.5 171.57 31.3133 171.126 30.94C170.683 30.5667 170.461 30.0767 170.461 29.47C170.461 29.19 170.485 28.91 170.531 28.63L172.106 19.32C172.176 18.7833 172.375 18.3633 172.701 18.06C173.051 17.7333 173.471 17.57 173.961 17.57H185.196C185.616 17.57 185.966 17.7217 186.246 18.025C186.55 18.305 186.701 18.655 186.701 19.075C186.701 19.495 186.55 19.845 186.246 20.125C185.966 20.405 185.616 20.545 185.196 20.545H175.046L173.926 27.965C175.7 27.0083 177.671 26.53 179.841 26.53C181.568 26.53 183.038 26.8683 184.251 27.545C185.488 28.2217 186.421 29.155 187.051 30.345C187.681 31.535 187.996 32.9 187.996 34.44C187.996 36.7967 187.191 38.71 185.581 40.18C183.971 41.6267 181.58 42.35 178.406 42.35Z" fill="#ECECEE"/>
</svg>
