<svg viewBox="0 0 20 10" xmlns="http://www.w3.org/2000/svg">
    <path d="M4.5 8.5L1 1.5H2.5L4.5 5.5L5.5 3.5L5.625 3.25L5.75 3H7.25L7.125 3.25L7 3.5L4.5 8.5Z" fill="#7651E8" fill-opacity="0.75"/>
    <path d="M6.5 1.5H8L7.5 2.5H6L6.5 1.5Z" fill="#7651E8" fill-opacity="0.75"/>
    <path d="M12.5 1.5H14L13.5 2.5H12L12.5 1.5Z" fill="#656AFF" fill-opacity="0.75"/>
    <path d="M8.5 1.5L10.5 5.5L11.5 3.5L11.625 3.25L11.75 3H13.25L13.125 3.25L13 3.5L10.5 8.5L7.75 3L8.5 1.5Z" fill="#656AFF" fill-opacity="0.75"/>
    <path d="M17.5 5C17.5 6 17 7 15 7H11.75L11 8.5H15C18 8.5 19 7 19 5C19 3 18 1.5 15 1.5H14.5L13.75 3L15 3C17 3 17.5 4 17.5 5Z" fill="#59B5FF" fill-opacity="0.75"/>
</svg>
